General
Complete name                    : 2.Broke.Girls.S01E18.480p.HDTV.x264.mSD-KarMa.mp4
Format                           : MPEG-4 (x264)
File size                        : 177 MiB
Duration                         : 21mn 10s
Overall bit rate mode            : Variable
Overall bit rate                 : 1 168 Kbps
Encoded date                     : UTC 2012-02-28 10:02:27
-
Video
ID                               : 1
Format                           : AVC
Format/Info                      : Advanced Video Codec
Format profile                   : High@L3.0
Format settings, CABAC           : Yes
Format settings, ReFrames        : 4 frames
Codec ID                         : avc1
Codec ID/Info                    : Advanced Video Coding
Duration                         : 21mn 10s
Bit rate                         : 1 058 Kbps
Maximum bit rate                 : 7 493 Kbps
Width                            : 848 pixels
Height                           : 480 pixels
Display aspect ratio             : 16:9
Frame rate mode                  : Variable
Frame rate                       : 24.131 fps
Scan type                        : Progressive
Bits/(Pixel*Frame)               : 0.108
Stream size                      : 160 MiB (91%)
Writing library                  : x264 core 112
Encoding settings                : cabac=1 / ref=3 / deblock=1:0:0 / analyse=0x3:0x113 / me=umh / subme=9 / psy=1 / psy_rd=1.00:0.15 / mixed_ref=1 / me_range=26 / chroma_me=1 / trellis=1
-
Audio
ID                               : 2
Format                           : AAC
Format/Info                      : Advanced Audio Codec
Format profile                   : HE-AAC / LC
Codec ID                         : 40
Duration                         : 21mn 10s
Bit rate mode                    : Variable
Bit rate                         : 106 Kbps
Maximum bit rate                 : 123 Kbps
Channel(s)                       : 2 channels
Channel positions                : Front: L R
Sampling rate                    : 48.0 KHz / 24.0 KHz
Compression mode                 : Lossy
Stream size                      : 16.0 MiB (9%)
 
http://imgcrave.com/u/YXnEj.png
 
http://imgcrave.com/u/gLfTE.png
 
http://imgcrave.com/u/Mq0bE.png